<svg width="106" height="24" viewBox="0 0 106 24" fill="none" xmlns="http://www.w3.org/2000/svg">
<path fill-rule="evenodd" clip-rule="evenodd" d="M90.6862 13.993C89.878 13.5579 89.5435 13.0526 89.5435 12.2807C89.5435 11.5789 89.8083 11.1018 90.4772 10.5965C90.8534 10.3158 91.0624 10.3018 96.3715 10.2737C101.555 10.2316 101.904 10.2456 102.475 10.4982C102.921 10.7088 103.172 10.9333 103.381 11.3404C103.729 12.0421 103.743 12.4912 103.395 13.1509C102.879 14.1614 102.921 14.1614 96.7756 14.2456L91.2714 14.3158L90.6862 13.993Z" fill="#DA271F"/>
<path fill-rule="evenodd" clip-rule="evenodd" d="M88.3034 22.8632C84.5828 21.8246 81.8516 19.214 80.6393 15.5369C80.2352 14.3298 80.1934 14.1053 80.1934 12.2807C80.1934 10.4421 80.2352 10.2176 80.6393 8.98247C81.2664 7.10176 81.9352 6.02106 83.3984 4.54738C84.7361 3.18597 85.9066 2.47019 87.8574 1.7965C88.7075 1.50176 89.0698 1.47369 90.9927 1.47369C92.9854 1.47369 93.2223 1.50176 94.2674 1.86668C97.0682 2.84913 99.6322 5.03861 99.6182 6.45615C99.6182 7.43861 98.6568 8.40703 97.6813 8.40703C97.0961 8.40703 96.5248 8.08422 95.6608 7.24212C93.5149 5.17896 90.2263 4.74387 87.6484 6.18948C83.4959 8.50527 82.841 14.1754 86.3386 17.3895C89.028 19.8597 93.0968 19.7754 95.7723 17.179C96.2321 16.7439 96.7477 16.3369 96.9289 16.2667C98.1133 15.8176 99.451 16.6176 99.5904 17.8526C99.674 18.6386 99.4232 19.1439 98.4756 20.0702C97.1239 21.4035 95.4239 22.3579 93.4591 22.8632C91.9821 23.2562 89.6968 23.2562 88.3034 22.8632Z" fill="#E67716"/>
<path fill-rule="evenodd" clip-rule="evenodd" d="M1.81146 12.2807V1.54385H4.19427H6.57709L6.92545 1.9228C7.23201 2.27368 13.0567 13.7544 13.5165 14.9193L13.7255 15.4386L17.0698 8.75789C19.0346 4.81403 20.5395 1.96491 20.7346 1.81052C21.0412 1.57192 21.3199 1.54385 23.424 1.54385H25.7789V12.2807V23.0175H23.5355H21.3059L21.3477 16.1403C21.3756 11.0316 21.3477 9.30526 21.2223 9.43157C21.1387 9.52982 19.8985 11.9158 18.4633 14.7368C16.6936 18.1895 15.7042 20 15.3837 20.3088C14.9378 20.7439 14.8542 20.7719 13.8649 20.7719C13.2936 20.7719 12.6665 20.6877 12.4714 20.6035C11.9698 20.3649 11.8862 20.2246 8.41645 13.4035C7.35742 11.3123 6.40987 9.48771 6.31233 9.33333C6.15905 9.09473 6.13118 10.1474 6.13118 16.0281V23.0175H3.97132H1.81146V12.2807Z" fill="#E67716"/>
<path fill-rule="evenodd" clip-rule="evenodd" d="M27.451 22.9474C27.451 22.9053 28.0502 21.3053 28.7748 19.3965C29.5134 17.4877 30.7675 14.2176 31.5757 12.1404C32.37 10.0491 33.3036 7.62107 33.638 6.73686C33.9864 5.83862 34.5716 4.32283 34.9339 3.36844L35.6028 1.61406L38.1807 1.57195L40.7586 1.52985L41.2045 2.69476C41.4414 3.32634 41.9151 4.57546 42.2496 5.47371C42.5979 6.35792 43.4479 8.60353 44.1586 10.4562C44.8693 12.3088 45.566 14.1053 45.7053 14.4562C45.8447 14.793 46.5275 16.5614 47.2103 18.386C47.907 20.1965 48.5619 21.9088 48.6873 22.2035C48.7988 22.4842 48.9103 22.793 48.9103 22.8632C48.9103 22.9614 48.116 23.0176 46.6808 23.0176H44.4512L44.0053 22.6105C43.643 22.2877 43.434 21.8246 42.9045 20.2527L42.2496 18.3158L38.2085 18.2737L34.1536 18.2316L33.5683 20.0281C32.5511 23.1018 32.6765 23.0176 29.6109 23.0176C28.4125 23.0176 27.451 22.9755 27.451 22.9474ZM35.3938 14.6807C35.3938 14.6527 35.979 12.8421 36.7175 10.6807C37.4421 8.51932 38.0413 6.63862 38.0413 6.52634C38.0413 6.00704 38.2643 6.40002 38.6126 7.46669C38.8217 8.09827 39.4208 9.93686 39.9782 11.5228C40.5217 13.1228 40.9676 14.4983 40.9676 14.5825C40.9676 14.6807 40.0479 14.7369 38.1807 14.7369C36.6479 14.7369 35.3938 14.7088 35.3938 14.6807Z" fill="#E67716"/>
<path fill-rule="evenodd" clip-rule="evenodd" d="M50.6103 12.3088L50.6521 1.61404L55.3063 1.57194C60.4342 1.52983 61.535 1.62808 63.4023 2.32983C66.1195 3.34036 68.4187 5.69825 69.3245 8.40702C69.84 9.95088 69.9933 11.0877 69.9097 12.9684C69.7007 17.8526 66.7884 21.4456 62.0506 22.6807C60.7965 23.0035 60.5735 23.0175 55.6686 23.0175H50.5825L50.6103 12.3088ZM55.6546 19.0456C55.6268 18.9474 55.5989 15.8456 55.6268 12.1404L55.6686 5.40351H57.6891C60.4342 5.40351 61.6047 5.71229 62.7752 6.75088C63.5277 7.41053 64.0433 8.26667 64.4474 9.47369C64.7539 10.386 64.8097 10.8351 64.8236 12.1404C64.8236 13.9088 64.6564 14.8491 64.0851 16.0702C63.3605 17.614 62.0645 18.6105 60.2391 19.0175C59.0965 19.2842 55.7661 19.2983 55.6546 19.0456Z" fill="#E67716"/>
<path fill-rule="evenodd" clip-rule="evenodd" d="M72.8778 12.2807V1.54385H75.386H77.8942V12.2807V23.0175H75.386H72.8778V12.2807Z" fill="#E67716"/>
</svg>
